<svg xmlns="http://www.w3.org/2000/svg" viewBox="0 0 200 200">
  <defs>
    <linearGradient id="aliceGrad" x1="0%" y1="0%" x2="0%" y2="100%">
      <stop offset="0%" style="stop-color:#3b82f6"/>
      <stop offset="100%" style="stop-color:#8b5cf6"/>
    </linearGradient>
  </defs>
  <!-- Background circle -->
  <circle cx="100" cy="100" r="95" fill="url(#aliceGrad)" stroke="#fbbf24" stroke-width="3"/>
  
  <!-- Hair - blonde -->
  <ellipse cx="100" cy="60" rx="55" ry="45" fill="#fbbf24"/>
  <ellipse cx="55" cy="90" rx="20" ry="40" fill="#fbbf24"/>
  <ellipse cx="145" cy="90" rx="20" ry="40" fill="#fbbf24"/>
  
  <!-- Face -->
  <ellipse cx="100" cy="85" rx="40" ry="45" fill="#fde8d7"/>
  
  <!-- Hair band - blue -->
  <rect x="50" y="45" width="100" height="8" rx="4" fill="#3b82f6"/>
  <circle cx="50" cy="49" r="8" fill="#3b82f6"/>
  <circle cx="150" cy="49" r="8" fill="#3b82f6"/>
  
  <!-- Eyes -->
  <ellipse cx="82" cy="80" rx="10" ry="12" fill="white"/>
  <ellipse cx="118" cy="80" rx="10" ry="12" fill="white"/>
  <circle cx="82" cy="82" r="6" fill="#3b82f6"/>
  <circle cx="118" cy="82" r="6" fill="#3b82f6"/>
  <circle cx="84" cy="79" r="2" fill="white"/>
  <circle cx="120" cy="79" r="2" fill="white"/>
  
  <!-- Eyebrows -->
  <path d="M72 68 Q82 63 92 68" stroke="#c9a227" stroke-width="2" fill="none"/>
  <path d="M108 68 Q118 63 128 68" stroke="#c9a227" stroke-width="2" fill="none"/>
  
  <!-- Nose -->
  <path d="M100 85 L100 95" stroke="#d4a574" stroke-width="2" fill="none"/>
  
  <!-- Smile -->
  <path d="M85 105 Q100 118 115 105" stroke="#c9606c" stroke-width="3" fill="none"/>
  
  <!-- Blue dress collar -->
  <path d="M60 130 Q100 145 140 130 L145 160 Q100 180 55 160 Z" fill="#3b82f6"/>
  <path d="M80 130 L100 150 L120 130" stroke="white" stroke-width="2" fill="white"/>
  
  <!-- White apron accent -->
  <rect x="90" y="145" width="20" height="25" fill="white" rx="2"/>
  
  <!-- Curious expression mark -->
  <text x="165" y="50" font-size="20" fill="#fbbf24">?</text>
</svg>